<svg xmlns="http://www.w3.org/2000/svg" width="48" height="48" viewBox="0 0 48 48" aria-hidden="true">
  <path fill="#25D366" d="M24,4C13.5,4,5,12.5,5,23c0,3.5,0.9,6.8,2.6,9.8L4,44l11.4-3c3,1.6,6.3,2.4,9.6,2.4
  c10.5,0,19-8.5,19-19S34.5,4,24,4z"></path>
  <path fill="#FFF" d="M35.4,29.3c-0.6-0.3-3.4-1.6-4-1.8c-0.5-0.2-0.8-0.3-1.1,0.3s-1.2,1.8-1.5,2.1c-0.3,0.3-0.6,0.4-1.2,0.1
  c-0.6-0.3-2.6-0.9-5-2.9c-1.8-1.6-3-3.5-3.4-4.1c-0.3-0.6,0-0.9,0.3-1.2c0.3-0.3,0.6-0.6,0.9-0.9s0.4-0.5,0.6-0.9
  c0.2-0.3,0.1-0.7,0-0.9c-0.1-0.3-1.1-2.7-1.5-3.7s-0.8-0.9-1.1-0.9s-0.6,0-0.9,0c-0.3,0-0.9,0.1-1.3,0.7c-0.4,0.6-1.7,1.7-1.7,4.2
  c0,2.4,1.8,4.8,2,5.1c0.2,0.3,3.6,5.4,8.7,7.6c1.2,0.5,2.1,0.8,2.8,1c1.2,0.4,2.3,0.3,3.2,0.2c1-0.2,3.4-1.4,3.8-2.7
  c0.5-1.3,0.5-2.4,0.4-2.6C36.3,29.7,36,29.6,35.4,29.3z"></path>
</svg>
